<svg width="990" height="400" viewBox="0 0 990 400" fill="none" xmlns="http://www.w3.org/2000/svg">
<g clip-path="url(#clip0_7_4)">
<g filter="url(#filter0_d_7_4)">
<g filter="url(#filter1_d_7_4)">
<path d="M480.833 280.602C449.614 280.602 428.802 267.594 422.731 249.816C421.756 247.215 421.214 244.396 421.214 241.795C421.214 233.99 426.2 229.004 433.571 229.004C439.75 229.004 443.652 231.497 446.688 237.784C451.565 251.334 465.007 257.404 481.7 257.404C500.562 257.404 513.786 248.082 513.786 235.074C513.786 223.801 505.981 216.863 485.603 212.636L468.801 209.167C437.474 202.771 422.84 188.029 422.84 165.157C422.84 137.624 447.013 118.979 480.941 118.979C508.583 118.979 530.046 131.337 536.441 152.041C537.092 153.775 537.417 155.835 537.417 158.437C537.417 165.266 532.539 169.927 525.276 169.927C518.772 169.927 514.762 167.108 511.835 161.038C506.523 147.813 495.358 142.177 480.725 142.177C463.381 142.177 451.023 150.415 451.023 163.531C451.023 174.154 458.828 180.983 478.34 185.103L495.142 188.571C528.095 195.4 541.97 208.625 541.97 231.822C541.97 261.74 518.447 280.602 480.833 280.602ZM599.018 280.168C591.105 280.168 585.468 275.073 585.468 265.968V133.613C585.468 124.508 591.105 119.413 599.018 119.413C606.931 119.413 612.459 124.508 612.459 133.613V265.968C612.459 275.073 606.931 280.168 599.018 280.168ZM693.571 279.843C671.35 279.843 655.198 265.859 655.198 245.155C655.198 224.776 670.916 212.527 698.883 210.793L729.343 209.059V200.82C729.343 188.788 721.213 181.851 707.88 181.851C697.365 181.851 690.536 185.428 683.816 195.292C680.997 198.978 677.42 200.712 672.867 200.712C666.255 200.712 661.486 196.376 661.486 189.872C661.486 187.379 662.136 184.994 663.328 182.501C669.182 169.168 686.959 160.713 708.964 160.713C737.473 160.713 756.009 175.78 756.009 198.869V266.618C756.009 275.29 750.481 280.168 742.893 280.168C735.522 280.168 730.427 275.724 729.993 267.702V259.681H729.451C722.839 272.146 708.422 279.843 693.571 279.843ZM701.81 259.464C716.986 259.464 729.343 249.274 729.343 235.399V226.619L702.677 228.245C689.669 229.112 682.19 234.966 682.19 244.071C682.19 253.502 690.103 259.464 701.81 259.464ZM810.997 280.168C803.735 280.168 798.531 275.507 798.531 269.003C798.531 265.859 799.615 263.366 801.892 260.114L831.051 220.657L802.325 180.983C800.374 178.382 799.399 175.672 799.399 172.528C799.399 165.916 805.035 160.821 812.406 160.821C817.718 160.821 820.428 162.664 823.897 168.084L847.853 203.422H848.395L871.809 168.301C875.278 162.989 878.204 160.821 882.974 160.821C890.562 160.821 895.873 165.591 895.873 172.312C895.873 175.455 894.898 178.165 892.513 181.309L863.896 219.898L892.621 260.006C894.573 262.824 895.548 265.426 895.548 268.244C895.548 275.398 889.911 280.168 882.649 280.168C877.662 280.168 874.736 278.108 871.917 273.772L847.094 236.809H846.552L821.837 273.339C818.477 278.542 815.55 280.168 810.997 280.168Z" fill="#ECECEC"/>
</g>
</g>
<path d="M260.027 180.41C260.653 180.399 261.279 180.387 261.924 180.376C272.88 180.327 282.544 184.378 290.555 191.786C299.199 200.977 302.296 212.547 301.978 224.886C301.366 239.323 294.567 252.088 284.986 262.588C284.637 262.982 284.287 263.376 283.927 263.782C279.479 268.54 273.904 272.365 268.109 275.288C267.79 275.449 267.471 275.611 267.143 275.777C260.939 278.756 254.636 280.451 247.874 281.598C247.066 281.74 246.259 281.882 245.452 282.026C243.266 282.412 241.079 282.79 238.892 283.166C236.546 283.571 234.203 283.984 231.859 284.396C227.847 285.1 223.835 285.8 219.822 286.496C194.723 290.849 169.629 295.236 144.546 299.677C143.374 299.884 142.201 300.092 141.029 300.299C135.251 301.322 129.473 302.345 123.694 303.369C119.776 304.063 115.857 304.757 111.938 305.449C110.774 305.654 109.61 305.86 108.447 306.067C106.885 306.344 105.324 306.619 103.762 306.895C103.306 306.976 102.851 307.057 102.381 307.141C99.2933 307.684 99.2933 307.684 98.0827 307.684C97.2118 296.047 103.343 285.308 110.647 276.714C118.494 268.256 128.59 263.348 140.005 261.819C142.356 261.461 144.672 260.992 147.001 260.51C152.486 259.394 157.993 258.442 163.514 257.523C187.539 253.52 211.428 248.768 235.496 245.011C238.618 244.519 241.709 243.992 244.787 243.273C246.506 242.883 248.242 242.593 249.976 242.281C254.22 241.427 257.794 240.548 260.484 236.92C262.609 233.517 263.988 230.244 263.253 226.185C262.143 223.173 260.136 221.094 257.277 219.665C252.425 219.332 247.86 219.928 243.116 220.887C242.472 221.012 241.828 221.136 241.165 221.264C238.407 221.8 235.653 222.355 232.904 222.931C226.388 224.29 219.84 225.341 213.264 226.362C198.28 228.691 183.417 231.633 168.483 234.242C166.155 234.651 163.832 235.081 161.512 235.532C146.024 238.532 130.015 241.359 116.012 232.161C108.229 226.701 102.177 219.19 99.7127 209.885C99.7127 209.168 99.7127 208.451 99.7127 207.712C105.961 206.55 112.207 205.408 118.494 204.473C120.442 204.178 122.362 203.838 124.283 203.396C126.716 202.849 129.156 202.381 131.61 201.941C132.044 201.863 132.478 201.784 132.926 201.703C134.317 201.452 135.709 201.203 137.1 200.954C137.574 200.869 138.048 200.784 138.536 200.696C175.209 194.119 212.046 189.106 248.527 181.316C252.395 180.549 256.091 180.427 260.027 180.41Z" fill="url(#paint0_linear_7_4)"/>
<path d="M301.829 111C302.278 122.663 296.946 133.368 289.301 141.912C282.855 148.85 275.119 153.283 265.97 155.553C265.627 155.639 265.284 155.726 264.93 155.815C258.727 157.356 252.451 158.375 246.137 159.341C199.666 166.534 153.551 175.817 107.204 183.735C104.711 184.158 102.217 184.547 99.7127 184.892C101.346 171.4 110.747 158.582 121.119 150.24C132.156 141.661 144.467 138.149 158.086 135.959C199.283 129.112 240.328 121.35 281.486 114.264C282.046 114.167 282.606 114.071 283.184 113.971C284.269 113.784 285.354 113.598 286.44 113.412C288.883 112.992 291.326 112.567 293.766 112.129C294.196 112.052 294.625 111.975 295.068 111.895C295.857 111.753 296.646 111.61 297.435 111.465C298.929 111.196 300.307 111 301.829 111Z" fill="url(#paint1_linear_7_4)"/>
<g style="mix-blend-mode:screen" opacity="0.3" filter="url(#filter2_f_7_4)">
<ellipse cx="154" cy="217.445" rx="23" ry="99" fill="white"/>
</g>
</g>
<defs>
<filter id="filter0_d_7_4" x="412.214" y="118.979" width="483.659" height="169.622" filterUnits="userSpaceOnUse" color-interpolation-filters="sRGB">
<feFlood flood-opacity="0" result="BackgroundImageFix"/>
<feColorMatrix in="SourceAlpha" type="matrix" values="0 0 0 0 0 0 0 0 0 0 0 0 0 0 0 0 0 0 127 0" result="hardAlpha"/>
<feOffset dx="-5" dy="4"/>
<feGaussianBlur stdDeviation="2"/>
<feComposite in2="hardAlpha" operator="out"/>
<feColorMatrix type="matrix" values="0 0 0 0 0 0 0 0 0 0 0 0 0 0 0 0 0 0 0.25 0"/>
<feBlend mode="normal" in2="BackgroundImageFix" result="effect1_dropShadow_7_4"/>
<feBlend mode="normal" in="SourceGraphic" in2="effect1_dropShadow_7_4" result="shape"/>
</filter>
<filter id="filter1_d_7_4" x="419.614" y="117.379" width="491.859" height="178.822" filterUnits="userSpaceOnUse" color-interpolation-filters="sRGB">
<feFlood flood-opacity="0" result="BackgroundImageFix"/>
<feColorMatrix in="SourceAlpha" type="matrix" values="0 0 0 0 0 0 0 0 0 0 0 0 0 0 0 0 0 0 127 0" result="hardAlpha"/>
<feOffset dx="7" dy="7"/>
<feGaussianBlur stdDeviation="4.3"/>
<feComposite in2="hardAlpha" operator="out"/>
<feColorMatrix type="matrix" values="0 0 0 0 0 0 0 0 0 0 0 0 0 0 0 0 0 0 0.2 0"/>
<feBlend mode="normal" in2="BackgroundImageFix" result="effect1_dropShadow_7_4"/>
<feBlend mode="normal" in="SourceGraphic" in2="effect1_dropShadow_7_4" result="shape"/>
</filter>
<filter id="filter2_f_7_4" x="-95.6667" y="-108.222" width="499.333" height="651.333" filterUnits="userSpaceOnUse" color-interpolation-filters="sRGB">
<feFlood flood-opacity="0" result="BackgroundImageFix"/>
<feBlend mode="normal" in="SourceGraphic" in2="BackgroundImageFix" result="shape"/>
<feGaussianBlur stdDeviation="113.333" result="effect1_foregroundBlur_7_4"/>
</filter>
<linearGradient id="paint0_linear_7_4" x1="253.5" y1="0.944718" x2="91.5" y2="516.945" gradientUnits="userSpaceOnUse">
<stop offset="0.050206" stop-color="#9BFF68"/>
<stop offset="0.376059" stop-color="#62FF10"/>
<stop offset="1" stop-color="#3B990A"/>
</linearGradient>
<linearGradient id="paint1_linear_7_4" x1="253.5" y1="0.944718" x2="91.5" y2="516.945" gradientUnits="userSpaceOnUse">
<stop offset="0.050206" stop-color="#9BFF68"/>
<stop offset="0.376059" stop-color="#62FF10"/>
<stop offset="1" stop-color="#3B990A"/>
</linearGradient>
<clipPath id="clip0_7_4">
<rect width="990" height="400" fill="white"/>
</clipPath>
</defs>
</svg>
